<?xml version="1.0" encoding="utf-8"?>
<!-- Generator: Adobe Illustrator 25.4.1, SVG Export Plug-In . SVG Version: 6.00 Build 0)  -->
<svg version="1.1" id="Слой_1" xmlns="http://www.w3.org/2000/svg" xmlns:xlink="http://www.w3.org/1999/xlink" x="0px" y="0px"
	 viewBox="0 0 210.52 85.33" style="enable-background:new 0 0 210.52 85.33;" xml:space="preserve">
<style type="text/css">
	.st0{fill:#FFFFFF;}
	.st1{fill:none;stroke:#374069;stroke-width:4.5;stroke-miterlimit:10;}
	.st2{fill:#374069;}
	.st3{fill:#41ABE3;}
</style>
<path class="st0" d="M190.67,85.33H19.85C8.89,85.33,0,76.45,0,65.48V19.85C0,8.89,8.89,0,19.85,0h170.81
	c10.96,0,19.85,8.89,19.85,19.85v45.63C210.52,76.45,201.63,85.33,190.67,85.33z"/>
<path class="st1" d="M170.59,78.22H30.93c-6.64-6.64-10.37-10.37-17.01-17.01V25.63h156.67V78.22z"/>
<path class="st0" d="M194.96,70H35.86c-7.2,0-13.05-5.84-13.05-13.05V6.22h172.15V70z"/>
<g>
	<path class="st2" d="M49.21,64.32V48.06c0-7.9,0.06-15.34,0.12-23.24l-5.56,39.49h-4.19l-5.5-39.49c0.06,7.9,0.12,15.34,0.12,23.24
		v16.25h-4.37V10.59h6.37l5.44,41.97l5.44-41.97h6.56v53.72H49.21z"/>
	<path class="st2" d="M67.33,47.87h4.06v8.88c0,5.42-2.31,8.16-6.94,8.16c-4.44,0-6.69-2.74-6.69-8.16v-25.2
		c0-5.48,2.37-8.29,6.69-8.29c4.62,0,6.94,2.74,6.94,8.29v12.99h-9.62v12.21c0,2.42,0.88,3.59,2.69,3.59c1.94,0,2.87-1.17,2.87-3.59
		V47.87z M67.33,31.55c0-2.42-0.94-3.59-2.87-3.59c-1.81,0-2.69,1.17-2.69,3.59v9.73h5.56V31.55z"/>
	<path class="st2" d="M86.26,64.32c-0.06-0.98-0.12-1.96-0.12-3c-0.94,2.15-2.56,3.46-5.37,3.46c-3.69,0-5.5-2.55-5.5-7.57V30.7
		c0-5.29,1.69-7.44,5.69-7.44c2,0,3.69,1.04,4.69,2.61V10.59h4.25v53.72H86.26z M85.64,30.5c-0.69-1.76-1.81-2.68-3.37-2.68
		c-1.94,0-2.69,0.91-2.69,3.33v25.46c0,2.55,0.75,3.39,2.69,3.39c1.56,0,2.69-0.91,3.37-2.68V30.5z"/>
	<path class="st2" d="M98.57,64.32l-5.62-40.41h4.31c1.31,9.73,3,24.15,3.5,29.31c0.5-5.16,2.37-19.58,3.87-29.31h4.12l-5.87,40.41
		H98.57z"/>
	<path class="st2" d="M120.63,47.87h4.06v8.88c0,5.42-2.31,8.16-6.94,8.16c-4.44,0-6.69-2.74-6.69-8.16v-25.2
		c0-5.48,2.37-8.29,6.69-8.29c4.62,0,6.94,2.74,6.94,8.29v12.99h-9.62v12.21c0,2.42,0.88,3.59,2.69,3.59c1.94,0,2.87-1.17,2.87-3.59
		V47.87z M120.63,31.55c0-2.42-0.94-3.59-2.87-3.59c-1.81,0-2.69,1.17-2.69,3.59v9.73h5.56V31.55z"/>
	<path class="st3" d="M139.56,64.32c-0.06-0.98-0.12-1.96-0.12-3c-0.94,2.15-2.56,3.46-5.37,3.46c-3.69,0-5.5-2.55-5.5-7.57V30.7
		c0-5.29,1.69-7.44,5.69-7.44c2,0,3.69,1.04,4.69,2.61V10.59h4.25v53.72H139.56z M138.94,30.5c-0.69-1.76-1.81-2.68-3.37-2.68
		c-1.94,0-2.69,0.91-2.69,3.33v25.46c0,2.55,0.75,3.39,2.69,3.39c1.56,0,2.69-0.91,3.37-2.68V30.5z"/>
	<path class="st3" d="M156.75,47.87h4.06v8.88c0,5.42-2.31,8.16-6.94,8.16c-4.44,0-6.69-2.74-6.69-8.16v-25.2
		c0-5.48,2.37-8.29,6.69-8.29c4.62,0,6.94,2.74,6.94,8.29v12.99h-9.62v12.21c0,2.42,0.87,3.59,2.69,3.59c1.94,0,2.87-1.17,2.87-3.59
		V47.87z M156.75,31.55c0-2.42-0.94-3.59-2.87-3.59c-1.81,0-2.69,1.17-2.69,3.59v9.73h5.56V31.55z"/>
	<path class="st3" d="M168.62,64.32l-5.62-40.41h4.31c1.31,9.73,3,24.15,3.5,29.31c0.5-5.16,2.37-19.58,3.87-29.31h4.12l-5.87,40.41
		H168.62z"/>
</g>
<path class="st2" d="M202.62,32.78h-16.89c-0.96,0-1.74-0.78-1.74-1.74V12.33c0-0.96,0.78-1.74,1.74-1.74h16.89
	c0.96,0,1.74,0.78,1.74,1.74v18.72C204.36,32,203.58,32.78,202.62,32.78z"/>
<g>
	<path class="st0" d="M189.16,28.98V14.32h2.28v14.66H189.16z"/>
	<path class="st0" d="M195.73,28.98V15.69h-2.76v-1.37h7.77v1.37h-2.76v13.28H195.73z"/>
</g>
<g>
</g>
<g>
</g>
<g>
</g>
<g>
</g>
<g>
</g>
<g>
</g>
</svg>
